<svg width="28" height="28" viewBox="0 0 28 28" fill="none" xmlns="http://www.w3.org/2000/svg">
<path d="M20.3934 7.64172L17.0801 4.32839C16.9716 4.21904 16.8426 4.13224 16.7004 4.07301C16.5582 4.01378 16.4057 3.98329 16.2517 3.98329C16.0977 3.98329 15.9452 4.01378 15.803 4.07301C15.6609 4.13224 15.5318 4.21904 15.4234 4.32839C15.2061 4.54698 15.0841 4.84267 15.0841 5.15089C15.0841 5.4591 15.2061 5.7548 15.4234 5.97339L17.8967 8.44672L8.44672 17.8967L5.97339 15.4234C5.7548 15.2061 5.4591 15.0841 5.15089 15.0841C4.84267 15.0841 4.54698 15.2061 4.32839 15.4234C4.21904 15.5318 4.13224 15.6609 4.07301 15.803C4.01378 15.9452 3.98329 16.0977 3.98329 16.2517C3.98329 16.4057 4.01378 16.5582 4.07301 16.7004C4.13224 16.8426 4.21904 16.9716 4.32839 17.0801L7.60672 20.3584L10.8851 23.6367C10.9931 23.747 11.122 23.8347 11.2641 23.8947C11.4063 23.9548 11.559 23.9861 11.7134 23.9867C11.9451 23.9881 12.172 23.9204 12.3651 23.7923C12.5582 23.6642 12.7088 23.4815 12.7977 23.2675C12.8865 23.0534 12.9096 22.8178 12.864 22.5906C12.8185 22.3634 12.7063 22.1549 12.5417 21.9917L10.1034 19.5534L19.5534 10.1034L22.0267 12.5767C22.1355 12.6847 22.2645 12.7703 22.4063 12.8284C22.5481 12.8866 22.7001 12.9162 22.8533 12.9157C23.0066 12.9152 23.1583 12.8844 23.2997 12.8253C23.4412 12.7661 23.5695 12.6797 23.6776 12.5709C23.7856 12.4621 23.8711 12.3331 23.9293 12.1913C23.9874 12.0495 24.0171 11.8976 24.0165 11.7443C24.016 11.591 23.9853 11.4393 23.9261 11.2979C23.8669 11.1564 23.7805 11.0281 23.6717 10.9201L20.3934 7.64172ZM4.32839 20.3701C4.1087 20.1504 3.81074 20.0269 3.50005 20.0269C3.18937 20.0269 2.89141 20.1504 2.67172 20.3701C2.45203 20.5897 2.32861 20.8877 2.32861 21.1984C2.32861 21.5091 2.45203 21.807 2.67172 22.0267L5.97339 25.3284C6.0824 25.4365 6.21169 25.5221 6.35383 25.5801C6.49597 25.6382 6.64818 25.6676 6.80172 25.6667C6.95526 25.6676 7.10747 25.6382 7.24961 25.5801C7.39176 25.5221 7.52104 25.4365 7.63005 25.3284C7.7394 25.2199 7.8262 25.0909 7.88543 24.9487C7.94466 24.8066 7.97515 24.6541 7.97515 24.5001C7.97515 24.346 7.94466 24.1936 7.88543 24.0514C7.8262 23.9092 7.7394 23.7802 7.63005 23.6717L4.32839 20.3701ZM25.3284 5.97339L22.0267 2.67172C21.9179 2.56294 21.7888 2.47665 21.6467 2.41778C21.5046 2.35891 21.3522 2.32861 21.1984 2.32861C21.0445 2.32861 20.8922 2.35891 20.7501 2.41778C20.608 2.47665 20.4788 2.56294 20.3701 2.67172C20.2613 2.7805 20.175 2.90964 20.1161 3.05176C20.0572 3.19389 20.0269 3.34622 20.0269 3.50005C20.0269 3.65389 20.0572 3.80622 20.1161 3.94834C20.175 4.09047 20.2613 4.21961 20.3701 4.32839L23.6717 7.63005C23.7802 7.7394 23.9092 7.8262 24.0514 7.88543C24.1935 7.94466 24.346 7.97515 24.5001 7.97515C24.6541 7.97515 24.8066 7.94466 24.9487 7.88543C25.0909 7.8262 25.2199 7.7394 25.3284 7.63005C25.4377 7.5216 25.5245 7.39256 25.5838 7.25039C25.643 7.10822 25.6735 6.95573 25.6735 6.80172C25.6735 6.64771 25.643 6.49522 25.5838 6.35305C25.5245 6.21088 25.4377 6.08184 25.3284 5.97339Z" fill="#101010"/>
</svg>
