<svg width="28" height="28" viewBox="0 0 28 28" fill="none" xmlns="http://www.w3.org/2000/svg">
<path d="M24.5007 10.5C24.1912 10.5 23.8945 10.6229 23.6757 10.8417C23.4569 11.0605 23.334 11.3572 23.334 11.6667V15.1667H4.66732V11.6667C4.66732 11.3572 4.5444 11.0605 4.32561 10.8417C4.10682 10.6229 3.81007 10.5 3.50065 10.5C3.19123 10.5 2.89449 10.6229 2.67569 10.8417C2.4569 11.0605 2.33398 11.3572 2.33398 11.6667V16.3333C2.33398 16.6428 2.4569 16.9395 2.67569 17.1583C2.89449 17.3771 3.19123 17.5 3.50065 17.5H24.5007C24.8101 17.5 25.1068 17.3771 25.3256 17.1583C25.5444 16.9395 25.6673 16.6428 25.6673 16.3333V11.6667C25.6673 11.3572 25.5444 11.0605 25.3256 10.8417C25.1068 10.6229 24.8101 10.5 24.5007 10.5Z" fill="#292929"/>
</svg>
