<svg width="28" height="28" viewBox="0 0 28 28" fill="none" xmlns="http://www.w3.org/2000/svg">
<path d="M16.3327 12.834H15.166V11.6673C15.166 11.3579 15.0431 11.0612 14.8243 10.8424C14.6055 10.6236 14.3088 10.5007 13.9993 10.5007C13.6899 10.5007 13.3932 10.6236 13.1744 10.8424C12.9556 11.0612 12.8327 11.3579 12.8327 11.6673V12.834H11.666C11.3566 12.834 11.0599 12.9569 10.8411 13.1757C10.6223 13.3945 10.4993 13.6912 10.4993 14.0007C10.4993 14.3101 10.6223 14.6068 10.8411 14.8256C11.0599 15.0444 11.3566 15.1673 11.666 15.1673H12.8327V16.334C12.8327 16.6434 12.9556 16.9402 13.1744 17.1589C13.3932 17.3777 13.6899 17.5007 13.9993 17.5007C14.3088 17.5007 14.6055 17.3777 14.8243 17.1589C15.0431 16.9402 15.166 16.6434 15.166 16.334V15.1673H16.3327C16.6421 15.1673 16.9388 15.0444 17.1576 14.8256C17.3764 14.6068 17.4993 14.3101 17.4993 14.0007C17.4993 13.6912 17.3764 13.3945 17.1576 13.1757C16.9388 12.9569 16.6421 12.834 16.3327 12.834ZM22.902 4.25887C22.767 4.1499 22.6095 4.07218 22.4409 4.03131C22.2723 3.99044 22.0967 3.98742 21.9268 4.02247C20.6799 4.286 19.3923 4.29077 18.1435 4.03649C16.8948 3.78222 15.7115 3.2743 14.667 2.5442C14.4712 2.40737 14.2382 2.33398 13.9993 2.33398C13.7605 2.33398 13.5275 2.40737 13.3317 2.5442C12.2873 3.2746 11.1041 3.7827 9.85529 4.03699C8.60648 4.29128 7.31876 4.28633 6.07194 4.02247C5.90209 3.98681 5.72642 3.98952 5.55774 4.03038C5.38906 4.07124 5.23163 4.14923 5.09692 4.25867C4.96222 4.3681 4.85363 4.50622 4.77908 4.66295C4.70454 4.81968 4.66591 4.99108 4.66602 5.16463V13.8645C4.66774 15.5355 5.06742 17.182 5.83198 18.6679C6.59654 20.1537 7.70399 21.4361 9.06266 22.4088L13.3215 25.4503C13.5194 25.5915 13.7564 25.6674 13.9994 25.6674C14.2425 25.6674 14.4794 25.5915 14.6773 25.4503L18.9361 22.4083C20.2948 21.4357 21.4023 20.1535 22.1668 18.6677C22.9314 17.1819 23.331 15.5354 23.3327 13.8645V5.16467C23.3327 4.99118 23.294 4.81987 23.2195 4.66319C23.145 4.50651 23.0366 4.36839 22.902 4.25887ZM20.9993 13.8645C20.9979 15.164 20.687 16.4445 20.0925 17.6C19.4979 18.7556 18.6367 19.7529 17.5802 20.5096L13.9993 23.0668L10.4185 20.5102C9.36198 19.7533 8.50086 18.7559 7.90632 17.6003C7.31177 16.4446 7.00088 15.1641 6.99935 13.8645V6.51415C9.44558 6.72676 11.8963 6.15856 13.9993 4.89118C16.1024 6.15856 18.5531 6.72676 20.9993 6.51415V13.8645Z" fill="#292929"/>
</svg>
