<svg width="36" height="37" viewBox="0 0 36 37" fill="none" xmlns="http://www.w3.org/2000/svg">
<path d="M25.4988 14.3073C26.0921 14.3073 26.6722 14.1265 27.1655 13.7877C27.6589 13.4489 28.0434 12.9673 28.2704 12.4039C28.4975 11.8405 28.5569 11.2205 28.4412 10.6224C28.3254 10.0243 28.0397 9.47493 27.6201 9.04371C27.2006 8.6125 26.666 8.31884 26.0841 8.19987C25.5021 8.0809 24.8989 8.14196 24.3507 8.37533C23.8026 8.6087 23.334 9.0039 23.0044 9.51095C22.6747 10.018 22.4988 10.6141 22.4988 11.224C22.4988 12.0417 22.8149 12.826 23.3775 13.4042C23.9401 13.9824 24.7032 14.3073 25.4988 14.3073ZM4.0638 21.4606C4.36103 21.5583 4.64757 21.6875 4.9188 21.846C5.85169 22.4069 6.91301 22.7025 7.9938 22.7025C9.07459 22.7025 10.1359 22.4069 11.0688 21.846C11.6554 21.5085 12.3165 21.3312 12.9888 21.3312C13.6611 21.3312 14.3222 21.5085 14.9088 21.846L15.2238 22.0002C16.134 22.4556 17.1387 22.6755 18.1505 22.6405C19.1623 22.6056 20.1504 22.317 21.0288 21.7998C21.6154 21.4622 22.2765 21.2849 22.9488 21.2849C23.6211 21.2849 24.2822 21.4622 24.8688 21.7998C25.8194 22.3582 26.8939 22.6555 27.9888 22.6631C29.0453 22.6519 30.0802 22.354 30.9888 21.7998C31.26 21.6412 31.5466 21.512 31.8438 21.4144C32.0655 21.3987 32.281 21.3326 32.4748 21.2208C32.6686 21.109 32.8359 20.9544 32.9644 20.7681C33.0929 20.5818 33.1796 20.3684 33.2181 20.1435C33.2566 19.9185 33.246 19.6876 33.187 19.4674C33.1281 19.2472 33.0223 19.0432 32.8772 18.8701C32.7322 18.6971 32.5515 18.5593 32.3484 18.4668C32.1452 18.3743 31.9245 18.3293 31.7024 18.3352C31.4802 18.341 31.2621 18.3975 31.0638 18.5006C30.5404 18.6676 30.0372 18.8952 29.5638 19.179C29.0849 19.4631 28.5417 19.6127 27.9888 19.6127C27.4359 19.6127 26.8927 19.4631 26.4138 19.179C25.3747 18.5765 24.2019 18.2599 23.0088 18.2599C21.8158 18.2599 20.6429 18.5765 19.6038 19.179C19.4627 19.2499 19.3174 19.3116 19.1688 19.364L21.5088 16.959C21.5624 16.8876 21.6077 16.8099 21.6438 16.7277C21.7117 16.6519 21.772 16.5692 21.8238 16.481C21.8308 16.3835 21.8308 16.2856 21.8238 16.1881C21.8323 16.0907 21.8323 15.9927 21.8238 15.8952C21.831 15.8029 21.831 15.7101 21.8238 15.6177C21.8323 15.5203 21.8323 15.4222 21.8238 15.3248C21.7794 15.2342 21.7293 15.1466 21.6738 15.0627C21.6349 14.9739 21.5844 14.8909 21.5238 14.816L16.9188 9.68229C16.7977 9.54654 16.6558 9.43199 16.4988 9.34313C16.3943 9.3289 16.2883 9.3289 16.1838 9.34313C16.0994 9.32902 16.0132 9.32902 15.9288 9.34313C15.7291 9.26055 15.513 9.22881 15.2988 9.25063L9.9888 11.2856C9.61494 11.4248 9.31014 11.7108 9.14138 12.0808C8.97262 12.4509 8.9537 12.8746 9.0888 13.259C9.22419 13.6432 9.50248 13.9565 9.86251 14.1299C10.2225 14.3034 10.6348 14.3228 11.0088 14.184L15.4038 12.5344L18.4038 15.8027L15.5538 18.7319C14.5989 18.3504 13.5736 18.1912 12.5517 18.2658C11.5297 18.3405 10.5366 18.6471 9.6438 19.1635C9.16494 19.4477 8.62174 19.5973 8.0688 19.5973C7.51586 19.5973 6.97266 19.4477 6.4938 19.1635C6.02043 18.8797 5.5172 18.6522 4.9938 18.4852C4.80187 18.4116 4.59732 18.3792 4.39274 18.39C4.18816 18.4007 3.98789 18.4545 3.80429 18.5478C3.62068 18.6412 3.45763 18.7722 3.32518 18.9328C3.19273 19.0934 3.09369 19.2802 3.03417 19.4817C2.97465 19.6831 2.95591 19.895 2.9791 20.1042C3.00229 20.3133 3.06692 20.5154 3.16901 20.698C3.27111 20.8805 3.40849 21.0396 3.5727 21.1654C3.73691 21.2913 3.92446 21.3813 4.1238 21.4298L4.0638 21.4606ZM31.0638 26.2244C30.5404 26.3913 30.0372 26.6189 29.5638 26.9027C29.0849 27.1869 28.5417 27.3365 27.9888 27.3365C27.4359 27.3365 26.8927 27.1869 26.4138 26.9027C25.3747 26.3002 24.2019 25.9837 23.0088 25.9837C21.8158 25.9837 20.6429 26.3002 19.6038 26.9027C19.1209 27.1911 18.5723 27.343 18.0138 27.343C17.4553 27.343 16.9067 27.1911 16.4238 26.9027C15.3847 26.3002 14.2118 25.9837 13.0188 25.9837C11.8258 25.9837 10.6529 26.3002 9.6138 26.9027C9.13494 27.1869 8.59174 27.3365 8.0388 27.3365C7.48586 27.3365 6.94266 27.1869 6.4638 26.9027C5.99043 26.6189 5.4872 26.3913 4.9638 26.2244C4.77187 26.1508 4.56732 26.1184 4.36274 26.1291C4.15816 26.1399 3.95789 26.1936 3.77429 26.287C3.59068 26.3803 3.42763 26.5114 3.29518 26.672C3.16273 26.8326 3.06369 27.0194 3.00417 27.2208C2.94465 27.4223 2.92591 27.6341 2.9491 27.8433C2.97229 28.0525 3.03692 28.2546 3.13901 28.4371C3.24111 28.6196 3.37849 28.7787 3.5427 28.9046C3.70691 29.0305 3.89446 29.1204 4.0938 29.169C4.39103 29.2666 4.67757 29.3958 4.9488 29.5544C5.88169 30.1153 6.94301 30.4109 8.0238 30.4109C9.10459 30.4109 10.1659 30.1153 11.0988 29.5544C11.6854 29.2168 12.3465 29.0395 13.0188 29.0395C13.6911 29.0395 14.3522 29.2168 14.9388 29.5544C15.8798 30.1074 16.9449 30.3983 18.0288 30.3983C19.1127 30.3983 20.1778 30.1074 21.1188 29.5544C21.7054 29.2168 22.3665 29.0395 23.0388 29.0395C23.7111 29.0395 24.3722 29.2168 24.9588 29.5544C25.9094 30.1128 26.9839 30.4101 28.0788 30.4177C29.1353 30.4064 30.1702 30.1086 31.0788 29.5544C31.35 29.3958 31.6366 29.2666 31.9338 29.169C32.1229 29.1103 32.2989 29.0138 32.4518 28.8852C32.6046 28.7566 32.7313 28.5983 32.8246 28.4193C32.918 28.2404 32.9761 28.0443 32.9957 27.8423C33.0152 27.6403 32.9959 27.4362 32.9388 27.2419C32.8817 27.0475 32.7879 26.8666 32.6627 26.7095C32.5376 26.5524 32.3836 26.4222 32.2094 26.3263C32.0353 26.2304 31.8445 26.1707 31.648 26.1505C31.4514 26.1304 31.2529 26.1503 31.0638 26.209V26.2244Z" fill="#292929"/>
</svg>
