<svg width="28" height="28" viewBox="0 0 28 28" fill="none" xmlns="http://www.w3.org/2000/svg">
<path d="M21 6.99957H16.8117L19.495 4.3279C19.6038 4.21912 19.6901 4.08998 19.7489 3.94786C19.8078 3.80573 19.8381 3.6534 19.8381 3.49957C19.8381 3.34573 19.8078 3.1934 19.7489 3.05127C19.6901 2.90915 19.6038 2.78001 19.495 2.67123C19.3862 2.56245 19.2571 2.47617 19.115 2.4173C18.9728 2.35843 18.8205 2.32812 18.6667 2.32812C18.356 2.32812 18.058 2.45154 17.8383 2.67123L14 6.4629L12.635 4.12957C12.5584 3.99627 12.4563 3.87938 12.3345 3.78554C12.2127 3.69171 12.0737 3.62279 11.9252 3.58271C11.7768 3.54262 11.622 3.53216 11.4695 3.55193C11.317 3.57169 11.17 3.62129 11.0367 3.6979C10.9034 3.7745 10.7865 3.87661 10.6926 3.99839C10.5988 4.12017 10.5299 4.25924 10.4898 4.40766C10.4497 4.55608 10.4393 4.71094 10.459 4.8634C10.4788 5.01587 10.5284 5.16294 10.605 5.29623L11.6667 6.99957H7C6.07174 6.99957 5.1815 7.36831 4.52513 8.02469C3.86875 8.68107 3.5 9.57131 3.5 10.4996V19.8329C3.5 20.7612 3.86875 21.6514 4.52513 22.3078C5.1815 22.9641 6.07174 23.3329 7 23.3329V24.4996C7 24.809 7.12292 25.1057 7.34171 25.3245C7.5605 25.5433 7.85725 25.6662 8.16667 25.6662C8.47609 25.6662 8.77283 25.5433 8.99162 25.3245C9.21042 25.1057 9.33333 24.809 9.33333 24.4996V23.3329H18.6667V24.4996C18.6667 24.809 18.7896 25.1057 19.0084 25.3245C19.2272 25.5433 19.5239 25.6662 19.8333 25.6662C20.1428 25.6662 20.4395 25.5433 20.6583 25.3245C20.8771 25.1057 21 24.809 21 24.4996V23.3329C21.9283 23.3329 22.8185 22.9641 23.4749 22.3078C24.1313 21.6514 24.5 20.7612 24.5 19.8329V10.4996C24.5 9.57131 24.1313 8.68107 23.4749 8.02469C22.8185 7.36831 21.9283 6.99957 21 6.99957ZM22.1667 19.8329C22.1667 20.1423 22.0438 20.4391 21.825 20.6579C21.6062 20.8766 21.3094 20.9996 21 20.9996H7C6.69058 20.9996 6.39383 20.8766 6.17504 20.6579C5.95625 20.4391 5.83333 20.1423 5.83333 19.8329V10.4996C5.83333 10.1901 5.95625 9.8934 6.17504 9.67461C6.39383 9.45581 6.69058 9.3329 7 9.3329H21C21.3094 9.3329 21.6062 9.45581 21.825 9.67461C22.0438 9.8934 22.1667 10.1901 22.1667 10.4996V19.8329Z" fill="#292929"/>
</svg>
