<svg width="29" height="20" viewBox="0 0 29 20" fill="none" xmlns="http://www.w3.org/2000/svg">
<path d="M3.2705 6.41221C10.0101 1.00295 19.8311 1.3213 26.2092 7.36577C26.7265 7.85596 27.5432 7.83403 28.0334 7.31677C28.5236 6.79952 28.5016 5.98283 27.9844 5.49264C20.662 -1.44661 9.39259 -1.81045 1.65519 4.39962C1.22626 4.7439 0.808335 5.10828 0.402755 5.49264C-0.114495 5.98284 -0.136429 6.79953 0.353763 7.31678C0.843956 7.83403 1.66065 7.85596 2.1779 7.36577C2.53206 7.03013 2.89661 6.71231 3.2705 6.41221Z" fill="#292929"/>
<path d="M24.1382 9.92565C18.6459 4.43336 9.74119 4.43336 4.2489 9.92565C3.74499 10.4296 3.74499 11.2465 4.2489 11.7504C4.7528 12.2544 5.56979 12.2544 6.07369 11.7504C10.5582 7.26596 17.8289 7.26596 22.3134 11.7504C22.8173 12.2544 23.6343 12.2544 24.1382 11.7504C24.6421 11.2465 24.6421 10.4296 24.1382 9.92565Z" fill="#292929"/>
<path d="M20.2673 14.1287C16.9128 10.7743 11.4743 10.7743 8.11987 14.1287C7.61597 14.6326 7.61597 15.4496 8.11987 15.9535C8.62377 16.4574 9.44076 16.4574 9.94466 15.9535C12.2913 13.6069 16.0958 13.6069 18.4425 15.9535C18.9464 16.4574 19.7634 16.4574 20.2673 15.9535C20.7712 15.4496 20.7712 14.6326 20.2673 14.1287Z" fill="#292929"/>
<path d="M15.8065 18.3871C15.8065 19.2779 15.0843 20 14.1936 20C13.3028 20 12.5807 19.2779 12.5807 18.3871C12.5807 17.4963 13.3028 16.7742 14.1936 16.7742C15.0843 16.7742 15.8065 17.4963 15.8065 18.3871Z" fill="#292929"/>
</svg>
