<svg width="35" height="35" viewBox="0 0 35 35" fill="none" xmlns="http://www.w3.org/2000/svg">
<path fill-rule="evenodd" clip-rule="evenodd" d="M11.1379 4.95161C7.37973 4.95161 4.9516 7.52849 4.9516 11.5039V23.4827C4.9516 24.5983 5.15869 25.5943 5.51306 26.4562C5.52836 26.4379 5.86206 26.0313 6.29739 25.5008C7.1483 24.4638 8.38751 22.9537 8.39619 22.946C9.40535 21.7939 11.2997 20.076 13.7862 21.1158C14.331 21.3417 14.8154 21.6512 15.2612 21.9361C15.3046 21.9638 15.3476 21.9913 15.3904 22.0185C16.226 22.577 16.7174 22.8395 17.2279 22.7958C17.4393 22.7666 17.6376 22.7039 17.8258 22.5872C18.5354 22.1497 20.3753 19.5428 20.9263 18.7621C21.0071 18.6476 21.0601 18.5724 21.0779 18.5491C22.6674 16.4783 25.1174 15.9241 27.1591 17.1491C27.4333 17.3124 29.3976 18.6847 30.0481 19.236V11.5039C30.0481 7.52849 27.6199 4.95161 23.8487 4.95161H11.1379ZM23.8487 2.91724C28.7735 2.91724 32.0824 6.36182 32.0824 11.5039V23.4827C32.0824 23.612 32.0689 23.7333 32.0553 23.8545C32.0457 23.9396 32.0362 24.0248 32.0314 24.1127C32.0283 24.1658 32.0268 24.2189 32.0252 24.272C32.0232 24.3429 32.0212 24.4137 32.0154 24.4845C32.0124 24.5122 32.007 24.5389 32.0015 24.5655C31.996 24.5921 31.9906 24.6187 31.9876 24.6464C31.9395 25.1043 31.8651 25.5418 31.7616 25.9662C31.7371 26.0723 31.7088 26.1745 31.6803 26.2777L31.6741 26.3002C31.5574 26.7114 31.4204 27.1037 31.2556 27.4785C31.2267 27.5415 31.1962 27.6029 31.1658 27.6643C31.1455 27.7053 31.1252 27.7462 31.1054 27.7877C30.9274 28.1449 30.7349 28.4877 30.5118 28.8056C30.4705 28.8644 30.4266 28.9196 30.3826 28.9748C30.3535 29.0113 30.3244 29.0479 30.296 29.0856C30.0641 29.386 29.822 29.6733 29.5479 29.9343C29.4931 29.9864 29.4339 30.034 29.3748 30.0816C29.3378 30.1114 29.3008 30.1412 29.2649 30.172C28.9835 30.4141 28.6962 30.646 28.3797 30.8443C28.3107 30.8877 28.2373 30.9241 28.1642 30.9604C28.1169 30.9838 28.0697 31.0072 28.0239 31.0324C27.7016 31.2104 27.3764 31.3839 27.022 31.5181C26.9368 31.5505 26.846 31.5739 26.7551 31.5974C26.6904 31.6141 26.6256 31.6308 26.5626 31.6508C26.5311 31.6605 26.4996 31.6703 26.4681 31.6801C26.1515 31.7786 25.836 31.8768 25.4951 31.9352C25.2977 31.9698 25.0881 31.9831 24.8784 31.9964C24.7876 32.0021 24.6969 32.0079 24.607 32.0154C24.5104 32.0226 24.4157 32.0342 24.3209 32.0459C24.1667 32.0649 24.0122 32.0839 23.8487 32.0839H11.1379C10.5895 32.0839 10.066 32.0285 9.55994 31.9454C9.54098 31.9424 9.52348 31.9395 9.50598 31.9366C7.53285 31.5968 5.89515 30.6445 4.74744 29.2081C4.73947 29.2081 4.73634 29.2027 4.73217 29.1955C4.72947 29.1909 4.72634 29.1855 4.72119 29.1804C3.56765 27.7279 2.91577 25.7752 2.91577 23.4827V11.5039C2.91577 6.36182 6.22765 2.91724 11.1379 2.91724H23.8487ZM16.0416 12.4176C16.0416 14.3936 14.3883 16.0417 12.4029 16.0417C10.6577 16.0417 9.16967 14.7666 8.83618 13.1157C8.78107 12.868 8.74998 12.6133 8.74998 12.3501C8.74998 10.36 10.3666 8.74999 12.3647 8.74999C13.3822 8.74999 14.3035 9.17783 14.9634 9.86041C15.6262 10.5191 16.0416 11.4268 16.0416 12.4176Z" fill="url(#paint0_linear_1_5756)"/>
<defs>
<linearGradient id="paint0_linear_1_5756" x1="31.7373" y1="3.99748" x2="3.16075" y2="15.3575" gradientUnits="userSpaceOnUse">
<stop offset="0.251155" stop-color="#FF385C"/>
<stop offset="1" stop-color="#1693C4"/>
</linearGradient>
</defs>
</svg>
